<svg width="100" height="100" xmlns="http://www.w3.org/2000/svg">
 <g>
  <title>background</title>
  <rect x="-1" y="-1" width="102" height="102" id="canvas_background" fill="none"/>
 </g>

 <g>
  <title>Layer 1</title>
  <g id="svg_1">
   <path fill="white" d="m57.9,73c-1.1,0.6 -2.4,1.2 -3.7,1.6c-2.5,0.9 -5.2,1.4 -7.9,1.4c-2.7,0 -5.3,-0.4 -7.8,-1.3c-5.2,-1.8 -9.2,-5 -12.2,-8.7c-4.1,2.3 -11.6,6.5 -19.3,12.2c8.9,12.2 23.2,20.2 39.5,20.2c5.1,0 10.1,-0.8 14.7,-2.3c-3.3,-3.7 -5.4,-8.6 -5.4,-13.9c0,-3.3 0.8,-6.4 2.1,-9.2z" id="svg_2"/>
   <path fill="white" d="m76.7,65.9c-9,0 -16.3,7.3 -16.3,16.3c0,9 7.3,16.3 16.3,16.3s16.3,-7.3 16.3,-16.3c0,-9 -7.3,-16.3 -16.3,-16.3zm0.7,25.6l-3,-3l4.1,-4.1l-11.3,0l0,-4.3l11.3,0l-4.1,-4.1l3,-3l9.3,9.3l-9.3,9.2z" id="svg_3"/>
   <path fill="white" d="m62.9,10.5c-0.1,0 -0.1,-0.1 -0.2,-0.1c-1.2,-4.9 -8.2,-10 -14.8,-8.7c-6.6,1.4 -20.2,-0.2 -20.2,-0.2c-0.2,2.9 2.3,4.9 2.3,4.9c-11.5,7 -9.4,22 -8.3,27.4c-0.1,0.1 -0.2,0.2 -0.3,0.4c-2.4,3.2 -1.5,7.8 -0.6,10.9c0.6,2 1.6,5.8 4,8c1.8,6.6 7,14.3 15.4,17.3c2,0.7 4.1,1.1 6.3,1.1c2.1,0 4.2,-0.4 6.2,-1.1c8.4,-3 13.6,-10.6 15.4,-17.3c2.4,-2.2 3.4,-6 4,-8c0.9,-3.2 1.8,-7.7 -0.6,-10.9c-0.1,-0.1 -0.2,-0.2 -0.3,-0.4c0.2,-1.1 0.3,-2.2 0.4,-3.2c2.9,-18.9 -7.5,-20 -8.7,-20.1zm4.7,33.2c-1.4,4.9 -2.7,6.3 -3.7,6.3c-0.9,5.8 -5.4,13.2 -12.8,15.8c-1.5,0.5 -3.1,0.8 -4.7,0.8c-1.6,0 -3.2,-0.3 -4.7,-0.8c-7.3,-2.6 -11.9,-10 -12.8,-15.8c-1,-0.1 -2.3,-1.5 -3.7,-6.3c-1.8,-6.3 -0.1,-7.5 1.5,-7.5c0.1,0 0.2,0 0.3,0c0,0 0,-0.1 0,-0.1c-0.3,-1 -1.7,-6.7 3.3,-10.2c4,0.9 10.1,1.1 18.3,-2.4c15.7,-6.7 17.1,12.7 17.1,12.7l0,0c0.1,0 0.2,0 0.3,0c1.7,0 3.4,1.3 1.6,7.5z" id="svg_4"/>
  </g>
 </g>
</svg>